<svg xmlns="http://www.w3.org/2000/svg">
  <symbol id="heart" viewBox="0 0 24 24" fill="none" stroke="currentcolor" stroke-width="3" stroke-linecap="round" stroke-linejoin="round">
    <title>love</title>
    <path d="M20.84 4.61a5.5 5.5 0 0 0-7.78 0L12 5.67l-1.06-1.06a5.5 5.5 0 0 0-7.78 7.78l1.06 1.06L12 21.23l7.78-7.78 1.06-1.06a5.5 5.5 0 0 0 0-7.78z">
    </path>
  </symbol>
  <symbol id="fill-heart" viewBox="0 0 24 24" fill="currentcolor" stroke="currentcolor" stroke-width="3" stroke-linecap="round" stroke-linejoin="round">
    <title>love</title>
    <path d="M20.84 4.61a5.5 5.5 0 0 0-7.78 0L12 5.67l-1.06-1.06a5.5 5.5 0 0 0-7.78 7.78l1.06 1.06L12 21.23l7.78-7.78 1.06-1.06a5.5 5.5 0 0 0 0-7.78z">
    </path>
  </symbol>
  <symbol id="refresh" viewBox="0 0 24 24" fill="none" stroke="currentColor" stroke-width="3" stroke-linecap="round" stroke-linejoin="round">
    <path d="M21.5 2v6h-6M2.5 22v-6h6M2 11.5a10 10 0 0 1 18.8-4.3M22 12.5a10 10 0 0 1-18.8 4.2"/>
  </symbol>
  <symbol id="1f912" viewBox="0 0 36 36">
    <circle fill="#FFCC4D" cx="18" cy="18" r="18"/>
    <ellipse fill="#664500" cx="12.5" cy="16.5" rx="2.5" ry="3.5"/>
    <ellipse fill="#664500" cx="23.5" cy="16.5" rx="2.5" ry="3.5"/>
    <path fill="#664500" d="M29 12c-5.554 0-7.802-4.367-7.895-4.553-.247-.494-.047-1.095.447-1.342.492-.247 1.092-.048 1.34.443C22.967 6.694 24.713 10 29 10c.553 0 1 .448 1 1 0 .553-.447 1-1 1zm-22-.006c-.552 0-1-.448-1-1s.448-1 1-1c5.083 0 5.996-3.12 6.033-3.253.145-.528.69-.848 1.219-.709.53.139.851.673.718 1.205-.049.194-1.266 4.757-7.97 4.757z"/>
    <path fill="#FFAC33" d="M35.968 17.068l-4.005.813-16.187 10.508 7.118.963 11.685-7.211c.703-.431.994-.835 1.198-1.747s.191-3.326.191-3.326z"/>
    <path fill="#664500" d="M23.485 29.379C23.474 29.335 22.34 26.5 18 26.5s-5.474 2.835-5.485 2.879c-.053.213.044.431.232.544.188.112.433.086.596-.06C13.352 29.855 14.356 29 18 29c3.59 0 4.617.83 4.656.863.095.09.219.137.344.137.084 0 .169-.021.246-.064.196-.112.294-.339.239-.557z"/>
    <path fill="#CCD6DD" d="M35.474 15.729c-.829-1.104-2.397-1.328-3.501-.5L14.767 28.137c.646-.242 1.51-.444 2.615-.522.256-.018 2.66-.627 2.66-.627l1.293 1.036s.911.367 1.197.539l12.444-9.335c1.103-.827 1.326-2.395.498-3.499z"/>
    <path fill="#DA2F47" d="M28.686 20.87c-.448-.596-.787-1.145-1.383-.698l-9.922 7.443c.256-.018.5-.042.783-.044 1.36-.009 2.4.195 3.17.452l7.588-5.692c.596-.447.211-.864-.236-1.461z"/>
    <path fill="#67757F" d="M18.599 25.228l1.234 1.598.741-.595-1.197-1.587zm2.223-1.661l1.235 1.598.741-.595-1.197-1.587zm2.184-1.619l1.234 1.598.741-.595-1.197-1.587zm2.181-1.66l1.235 1.597.741-.594-1.197-1.587zm2.238-1.641l1.235 1.598.74-.595-1.196-1.587zm2.14-1.618l1.235 1.598.74-.595-1.196-1.587z"/>
    <path fill="#452E04" d="M22.531 28.563l.805.522s-.197-.362-.526-.726l-.279.204z"/>
  </symbol>
  <symbol id="1f480" viewBox="0 0 36 36">
    <path fill="#CCD6DD" d="M34 16C34 6 26.837 0 18 0 9.164 0 2 6 2 16c0 5.574.002 10.388 6 12.64V33c0 1.657 1.343 3 3 3s3-1.343 3-3v-3.155c.324.027.659.05 1 .07V33c0 1.657 1.343 3 3 3s3-1.343 3-3v-3.085c.342-.021.676-.043 1-.07V33c0 1.657 1.344 3 3 3 1.657 0 3-1.343 3-3v-4.36c5.998-2.252 6-7.066 6-12.64z"/>
    <circle fill="#292F33" cx="11" cy="14" r="5"/>
    <circle fill="#292F33" cx="25" cy="14" r="5"/>
    <path fill="#292F33" d="M19.903 23.062C19.651 22.449 18.9 22 18 22s-1.652.449-1.903 1.062c-.632.176-1.097.75-1.097 1.438 0 .828.671 1.5 1.5 1.5.655 0 1.206-.422 1.41-1.007.03.001.059.007.09.007s.06-.006.09-.007c.205.585.756 1.007 1.41 1.007.828 0 1.5-.672 1.5-1.5 0-.688-.466-1.261-1.097-1.438z"/>
  </symbol>
  <symbol id="1f604" viewBox="0 0 36 36">
    <path fill="#FFCC4D" d="M36 18c0 9.941-8.059 18-18 18-9.94 0-18-8.059-18-18C0 8.06 8.06 0 18 0c9.941 0 18 8.06 18 18"/>
    <path fill="#664500" d="M28.457 17.797c-.06-.135-1.499-3.297-4.457-3.297-2.957 0-4.397 3.162-4.457 3.297-.092.207-.032.449.145.591.175.142.426.147.61.014.012-.009 1.262-.902 3.702-.902 2.426 0 3.674.881 3.702.901.088.066.194.099.298.099.11 0 .221-.037.312-.109.177-.142.238-.386.145-.594zm-12 0c-.06-.135-1.499-3.297-4.457-3.297-2.957 0-4.397 3.162-4.457 3.297-.092.207-.032.449.144.591.176.142.427.147.61.014.013-.009 1.262-.902 3.703-.902 2.426 0 3.674.881 3.702.901.088.066.194.099.298.099.11 0 .221-.037.312-.109.178-.142.237-.386.145-.594zM18 22c-3.623 0-6.027-.422-9-1-.679-.131-2 0-2 2 0 4 4.595 9 11 9 6.404 0 11-5 11-9 0-2-1.321-2.132-2-2-2.973.578-5.377 1-9 1z"/>
    <path fill="#FFF" d="M9 23s3 1 9 1 9-1 9-1-2 4-9 4-9-4-9-4z"/>
  </symbol>
  <symbol id="1f922" viewBox="0 0 36 36">
    <path fill="#77B255" d="M35.99 18c0 9.941-8.059 18-18 18-9.94 0-18-8.059-18-18 0-9.94 8.06-18 18-18s18 8.06 18 18"/>
    <path fill="#292F33" d="M15.364 26.122l-1.515-2.295c1.154-.762 2.606-1.182 4.089-1.182 1.49 0 2.895.402 4.062 1.162l-1.502 2.305c-1.425-.928-3.721-.924-5.134.01zm12.664-13.086c-.244-.3-6.771-1.502-6.826-1.502-.118 0-.251.089-.275.205-.218 1.027-.052 2.071.466 2.941.521.876 1.337 1.47 2.296 1.673.232.049.471.074.707.074 1.746 0 3.296-1.336 3.686-3.177.014-.075-.006-.156-.054-.214zm-13.272-1.502c-.056 0-6.583 1.202-6.827 1.502-.048.059-.068.14-.052.213.389 1.84 1.939 3.176 3.686 3.176.236 0 .474-.025.707-.074 1.972-.417 3.211-2.486 2.762-4.613-.024-.115-.157-.204-.276-.204z"/>
    <path fill="#3E721D" d="M11.647 29.647c-.444 0-.857-.28-1.005-.724-.185-.555.115-1.155.669-1.339.095-.033 2.453-.877 2.453-3.231s-2.358-3.198-2.458-3.232c-.55-.191-.846-.791-.659-1.342.187-.552.78-.852 1.334-.665.159.053 3.9 1.344 3.9 5.239s-3.741 5.187-3.9 5.239c-.11.037-.223.055-.334.055zm12.705 0c-.111 0-.223-.018-.334-.055-.159-.053-3.9-1.344-3.9-5.239s3.741-5.187 3.9-5.239c.559-.187 1.154.115 1.339.669.185.553-.113 1.151-.664 1.338-.1.034-2.458.878-2.458 3.232s2.358 3.198 2.458 3.232c.551.191.847.791.66 1.342-.15.442-.561.72-1.001.72z"/>
  </symbol>
  <symbol id="1f4c5" viewBox="0 0 36 36">
    <path fill="#E0E7EC" d="M36 32c0 2.209-1.791 4-4 4H4c-2.209 0-4-1.791-4-4V9c0-2.209 1.791-4 4-4h28c2.209 0 4 1.791 4 4v23z"/>
    <path fill="#DD2F45" d="M34 0h-3.277c.172.295.277.634.277 1 0 1.104-.896 2-2 2s-2-.896-2-2c0-.366.105-.705.277-1H8.723C8.895.295 9 .634 9 1c0 1.104-.896 2-2 2s-2-.896-2-2c0-.366.105-.705.277-1H2C.896 0 0 .896 0 2v11h36V2c0-1.104-.896-2-2-2z"/>
    <path fill="#66757F" d="M23.688 19h-.5c-1.085 0-1.538-.731-1.538-1.5 0-.792.565-1.5 1.538-1.5h2.015c.972 0 1.515.701 1.515 1.605V30.47c0 1.13-.558 1.763-1.53 1.763s-1.5-.633-1.5-1.763V19z"/>
    <g fill="#F3AAB9">
        <circle cx="33" cy="10" r="1"/>
        <circle cx="33" cy="7" r="1"/>
        <circle cx="30" cy="10" r="1"/>
        <circle cx="30" cy="7" r="1"/>
        <circle cx="27" cy="10" r="1"/>
        <circle cx="27" cy="7" r="1"/>
    </g>
    <path d="M2.468 4.94c0-.437.346-.783.783-.783h.173c.335 0 .569.173.711.406l1.891 3.08 1.9-3.089c.162-.264.386-.396.701-.396h.172c.437 0 .783.346.783.783v5.65c0 .437-.346.783-.783.783-.427 0-.772-.356-.772-.783V7.044L6.655 9.158c-.162.243-.365.396-.65.396s-.488-.152-.65-.396L4.003 7.074v3.537c0 .427-.346.762-.772.762s-.762-.335-.762-.762V4.94zm7.923 5.366l2.479-5.6c.173-.386.488-.62.915-.62h.091c.427 0 .732.234.905.62l2.479 5.6c.051.111.081.213.081.315 0 .417-.325.752-.742.752-.366 0-.61-.213-.752-.539l-.477-1.118h-3.13l-.498 1.169c-.132.305-.396.488-.722.488-.407 0-.722-.325-.722-.732.001-.112.042-.224.093-.335zm4.4-1.972l-.985-2.348-.986 2.348h1.971zm3.277-3.353c0-.437.346-.783.783-.783h2.47c.904 0 1.605.254 2.072.722.396.396.61.955.61 1.626v.021c0 1.118-.559 1.809-1.423 2.165l1.087 1.321c.153.193.255.356.255.6 0 .437-.366.722-.742.722-.355 0-.59-.173-.772-.407l-1.524-1.931h-1.25v1.555c0 .437-.346.783-.782.783-.437 0-.783-.346-.783-.783V4.981zm3.151 2.673c.762 0 1.199-.407 1.199-1.006v-.021c0-.67-.468-1.016-1.23-1.016h-1.555v2.043h1.586z" fill="#FFF"/><path fill="#66757F" d="M8.799 28.809l4.542-3.721c1.986-1.62 2.762-2.511 2.762-3.835 0-1.346-.89-2.077-2.145-2.077-1.004 0-1.712.434-2.602 1.392-.228.251-.639.503-1.187.503-.89 0-1.598-.708-1.598-1.598 0-.388.16-.799.411-1.096 1.278-1.484 2.785-2.351 5.204-2.351 3.31 0 5.501 1.94 5.501 4.93v.046c0 2.67-1.369 3.994-4.2 6.185l-2.602 2.009h5.569c.845 0 1.53.685 1.53 1.529 0 .844-.685 1.507-1.53 1.507H9.781c-1.096 0-1.895-.616-1.895-1.666 0-.685.32-1.278.913-1.757z"/>
  </symbol>
</svg>